<?xml version="1.0" encoding="UTF-8"?>
<svg width="116px" height="151px" viewBox="0 0 116 151" version="1.1" xmlns="http://www.w3.org/2000/svg" xmlns:xlink="http://www.w3.org/1999/xlink">
    <!-- Generator: Sketch 49.3 (51167) - http://www.bohemiancoding.com/sketch -->
    <title>Rectangle 4</title>
    <desc>Created with Sketch.</desc>
    <defs>
        <rect id="path-1" x="0" y="0" width="116" height="151"></rect>
        <polygon id="path-3" points="0.300090395 0.162670455 49.7684695 0.162670455 49.7684695 50.9278693 0.300090395 50.9278693"></polygon>
        <polygon id="path-5" points="0.492395914 0.341379508 7.92724007 0.341379508 7.92724007 8.00568182 0.492395914 8.00568182"></polygon>
    </defs>
    <g id="Symbols" stroke="none" stroke-width="1" fill="none" fill-rule="evenodd">
        <g id="nav/desktop-JS-NEW-NO-LINE">
            <g id="Rectangle-4">
                <mask id="mask-2" fill="white">
                    <use xlink:href="#path-1"></use>
                </mask>
                <use id="Mask" fill="#FFFFFF" xlink:href="#path-1"></use>
                <rect id="Rectangle" fill="#662D91" mask="url(#mask-2)" x="105" y="0" width="48" height="151"></rect>
                <g id="Page-1" mask="url(#mask-2)">
                    <g transform="translate(15.000000, -25.000000)">
                        <polygon id="Fill-1" fill="#662D91" transform="translate(48.812859, 99.791591) scale(-1, 1) translate(-48.812859, -99.791591) " points="0 -0.000170454545 0 198.798693 0.765175141 199.583352 97.6257175 100.18392"></polygon>
                        <g id="Group-30" stroke-width="1" fill="none" transform="translate(11.644068, 69.469886)">
                            <g id="Group-4" transform="translate(0.000000, 5.113636)">
                                <mask id="mask-4" fill="white">
                                    <use xlink:href="#path-3"></use>
                                </mask>
                                <g id="Clip-3"></g>
                                <path d="M41.6595232,33.9251705 L49.7281898,25.645625 C49.781896,25.5899432 49.781896,25.5007386 49.7281898,25.4444886 L41.5620768,17.064375 L33.2979638,8.58369318 L25.1318508,0.203579545 C25.077591,0.149034091 24.9906644,0.149034091 24.9364045,0.203579545 L16.8677379,8.48426136 C16.8140316,8.539375 16.8140316,8.62914773 16.8677379,8.68426136 L24.9364045,16.964375 C24.9906644,17.0194886 24.9906644,17.1092614 24.9364045,17.164375 L16.8677379,25.4444886 C16.8140316,25.5007386 16.7265514,25.5007386 16.6728452,25.4444886 L8.60417853,17.164375 C8.54991864,17.1092614 8.46243842,17.1092614 8.4087322,17.164375 L0.340065537,25.4444886 C0.286359322,25.5007386 0.286359322,25.5899432 0.340065537,25.645625 L8.50617853,34.0257386 L16.7702915,42.5064205 L24.9364045,50.8865341 C24.9906644,50.9416477 25.077591,50.9416477 25.1318508,50.8865341 L33.2005175,42.6058523 C33.2542237,42.5513068 33.2542237,42.4609659 33.2005175,42.4064205 L25.1318508,34.1257386 C25.0781446,34.070625 25.0781446,33.9808523 25.1318508,33.9251705 L33.2005175,25.645625 C33.2542237,25.5899432 33.341704,25.5899432 33.3954102,25.645625 L41.4646305,33.9251705 C41.5183367,33.9808523 41.6058169,33.9808523 41.6595232,33.9251705" id="Fill-2" fill="#FFFFFF" mask="url(#mask-4)"></path>
                            </g>
                            <path d="M52.098461,14.7578977 C48.9037718,18.0363068 43.7236136,18.0363068 40.5289243,14.7578977 C37.334235,11.4794886 37.334235,6.16357955 40.5289243,2.88517045 C43.7236136,-0.393238636 48.9037718,-0.393238636 52.098461,2.88517045 C55.2931503,6.16357955 55.2931503,11.4794886 52.098461,14.7578977" id="Fill-5" fill="#FFFFFF"></path>
                            <path d="M28.2810836,59.3801705 C28.2345751,59.3324432 28.2345751,59.2841477 28.2810836,59.2364205 L29.3740328,58.1142614 C29.4205412,58.0665341 29.4670497,58.0665341 29.5141119,58.1142614 L31.2022588,59.8477841 C31.230496,59.8761932 31.2581797,59.8761932 31.2864169,59.8477841 L32.7591853,58.3364205 C32.7868689,58.3074432 32.7868689,58.2784659 32.7591853,58.2500568 L31.0710384,56.5171023 C31.0239763,56.469375 31.0239763,56.4216477 31.0710384,56.3733523 L32.1639876,55.2523295 C32.210496,55.2040341 32.2570045,55.2040341 32.3040667,55.2523295 L36.9272305,59.9966477 C36.9742927,60.0449432 36.9742927,60.0926705 36.9272305,60.1403977 L35.834835,61.2619886 C35.7877729,61.3097159 35.7412644,61.3097159 35.6947559,61.2625568 L33.9362927,59.4574432 C33.9080554,59.4290341 33.8798181,59.4290341 33.8521345,59.4574432 L32.3793661,60.9688068 C32.3511288,60.9977841 32.3511288,61.0261932 32.3793661,61.0551705 L34.1378294,62.8597159 C34.1843379,62.9074432 34.1843379,62.9557386 34.1378294,63.0034659 L33.0448802,64.1250568 C32.9983718,64.1727841 32.9513096,64.1727841 32.9048011,64.1250568 L28.2810836,59.3801705 Z" id="Fill-7" fill="#FFFFFF"></path>
                            <path d="M40.1152757,57.0735795 C39.8257051,57.3707386 39.5234,57.5974432 39.2078068,57.753125 C38.8927672,57.909375 38.5716373,57.9889205 38.2449706,57.9940341 C37.9177503,57.9985795 37.5899763,57.9235795 37.2605412,57.7678977 C36.9311062,57.6116477 36.6077616,57.3713068 36.2905073,57.0451705 L33.4390949,54.1196023 C33.3920328,54.0713068 33.3920328,54.0230114 33.4390949,53.9752841 L34.5320441,52.8536932 C34.5785525,52.8059659 34.6256147,52.8059659 34.6721232,52.8536932 L37.600496,55.8588068 C37.8385751,56.103125 38.083852,56.2309659 38.3357729,56.2394886 C38.5882475,56.2497159 38.8141458,56.1508523 39.0156825,55.9457386 C39.2255243,55.7298295 39.3224169,55.4963068 39.3063605,55.2440341 C39.2897503,54.9923295 39.1624056,54.7446023 38.9243266,54.5008523 L35.9959537,51.4957386 C35.9494452,51.4480114 35.9494452,51.3997159 35.9959537,51.3519886 L37.0889028,50.2298295 C37.1354113,50.1821023 37.1824734,50.1815341 37.2289819,50.2298295 L40.0803944,53.1553977 C40.3982023,53.4821023 40.6312983,53.8150568 40.7807898,54.1548295 C40.9302814,54.4951705 41.0022588,54.8338068 40.9983831,55.1684659 C40.9934,55.5042614 40.9164395,55.8326705 40.766948,56.153125 C40.6174565,56.4747159 40.3998633,56.7815341 40.1152757,57.0735795" id="Fill-9" fill="#FFFFFF"></path>
                            <path d="M38.401826,48.9942045 C38.3553175,48.9464773 38.3553175,48.8981818 38.401826,48.8504545 L39.4383006,47.78625 C39.4992045,47.7248864 39.5623232,47.7072727 39.6276565,47.73625 L43.2143458,49.1595455 L43.2425831,49.1305682 L41.8273966,45.4788636 C41.799713,45.4118182 41.8157695,45.3470455 41.8766734,45.2856818 L42.8993062,44.2351136 C42.9458147,44.1873864 42.9923232,44.1873864 43.0393853,44.2351136 L47.6631028,48.9805682 C47.7096113,49.0282955 47.7096113,49.0765909 47.6631028,49.1243182 L46.6891932,50.1226136 C46.6421311,50.1709091 46.5956226,50.1709091 46.5496678,50.1226136 L44.0974531,47.6072727 L44.0620181,47.6425 L45.0780068,50.2521591 C45.0968316,50.3101136 45.1001537,50.3567045 45.0885266,50.3925 C45.0768994,50.4288636 45.0591819,50.4584091 45.0359277,50.4822727 L44.4894531,51.0430682 C44.4379616,51.0959091 44.3632158,51.1106818 44.2652158,51.0868182 L41.7221989,50.0442045 L41.6873175,50.08 L44.1395322,52.5959091 C44.1860407,52.6436364 44.1860407,52.6919318 44.1395322,52.7396591 L43.1656226,53.7396591 C43.1191141,53.7873864 43.072052,53.7873864 43.0255435,53.7396591 L38.401826,48.9942045 Z" id="Fill-11" fill="#FFFFFF"></path>
                            <path d="M49.4025751,43.5859091 L47.4757955,42.5148864 L47.4547559,42.5359091 L48.4779424,44.5347727 L49.4025751,43.5859091 Z M45.4305299,41.7813636 C45.3978633,41.7194318 45.405061,41.66375 45.4515695,41.6160227 L46.5932418,40.445 C46.6397503,40.3972727 46.6940102,40.3893182 46.7543605,40.4234091 L52.9892644,43.51375 C53.0501684,43.5478409 53.0568124,43.5881818 53.010304,43.6359091 L51.8542362,44.8228409 C51.8077277,44.8705682 51.7540215,44.8773864 51.6936712,44.8438636 L50.7336034,44.3188636 L49.1855356,45.9075 L49.6965751,46.8927273 C49.7297955,46.9557955 49.7225977,47.0103409 49.6755356,47.0580682 L48.5266655,48.2376136 C48.4801571,48.2853409 48.4402927,48.2779545 48.4081797,48.2154545 L45.4305299,41.7813636 Z" id="Fill-13" fill="#FFFFFF"></path>
                            <path d="M49.2097864,37.9030114 C49.163278,37.8552841 49.163278,37.8069886 49.2097864,37.7592614 L50.2396169,36.7024432 C50.3005209,36.6405114 50.3630859,36.6234659 50.4289729,36.651875 L54.5931424,37.9138068 L54.6213797,37.8853977 L51.9244418,35.1172159 C51.8779333,35.0694886 51.8779333,35.0217614 51.9244418,34.9734659 L52.9049955,33.9672159 C52.951504,33.9194886 52.9985661,33.9194886 53.0450746,33.9672159 L57.6687921,38.7121023 C57.7153006,38.7598295 57.7153006,38.808125 57.6687921,38.8558523 L56.6389616,39.9121023 C56.5780576,39.9746023 56.5154927,39.9916477 56.4501593,39.9626705 L52.3064757,38.6939205 L52.2643966,38.7371023 L54.9541367,41.4973295 C55.0011989,41.545625 55.0006452,41.5933523 54.9541367,41.6410795 L53.9735831,42.6478977 C53.9270746,42.695625 53.8800124,42.695625 53.833504,42.6478977 L49.2097864,37.9030114 Z" id="Fill-15" fill="#FFFFFF"></path>
                            <g id="Group-19" transform="translate(35.988701, 63.636364)">
                                <mask id="mask-6" fill="white">
                                    <use xlink:href="#path-5"></use>
                                </mask>
                                <g id="Clip-18"></g>
                                <path d="M4.38231638,3.44363636 L2.50536723,2.39988636 L2.48488136,2.42090909 L3.48149153,4.36806818 L4.38231638,3.44363636 Z M0.512146893,1.68568182 C0.480033898,1.62488636 0.487231638,1.57090909 0.532632768,1.52431818 L1.64496045,0.382840909 C1.69036158,0.335681818 1.74296045,0.328863636 1.80220339,0.361818182 L7.87709605,3.37375 C7.93633898,3.40613636 7.94298305,3.44590909 7.89758192,3.4925 L6.77141243,4.64875 C6.72545763,4.69534091 6.67341243,4.70215909 6.61416949,4.66920455 L5.67901695,4.15784091 L4.17081356,5.70556818 L4.66911864,6.66579545 C4.70067797,6.72659091 4.6940339,6.78056818 4.64863277,6.82715909 L3.52910734,7.97545455 C3.48370621,8.02261364 3.44494915,8.01522727 3.41338983,7.95443182 L0.512146893,1.68568182 Z" id="Fill-17" fill="#FFFFFF" mask="url(#mask-6)"></path>
                            </g>
                            <path d="M44.2521492,61.2111932 C44.2543638,61.0083523 44.1757424,60.8248295 44.0168384,60.6617614 C43.8573808,60.498125 43.6802056,60.4185795 43.4842056,60.423125 C43.2887593,60.4276705 43.0955277,60.5282386 42.9039571,60.7242614 L42.2899345,61.3549432 C42.2628045,61.3827841 42.2628045,61.4111932 42.2899345,61.4390341 L43.2660588,62.4407386 C43.2931887,62.4685795 43.3203186,62.4685795 43.3474486,62.4407386 L43.9620249,61.8100568 C44.1530418,61.6140341 44.2499345,61.4146023 44.2521492,61.2111932 Z M44.7404881,66.279375 C44.6945333,66.3259659 44.6491322,66.3259659 44.6037311,66.279375 L40.0984994,61.6560795 C40.0530983,61.6094886 40.0530983,61.5628977 40.0990531,61.5157386 L41.9555164,59.610625 C42.2373356,59.3214205 42.5252452,59.1049432 42.8186915,58.9628977 C43.1121379,58.8202841 43.3989401,58.7458523 43.6785446,58.7384659 C43.9587028,58.7316477 44.2294486,58.7878977 44.4913356,58.9066477 C44.7526689,59.0259659 44.9951774,59.1998295 45.2183073,59.4288068 C45.4408836,59.6572159 45.6103073,59.9060795 45.7265785,60.1742614 C45.8428497,60.4430114 45.8971096,60.723125 45.8904655,61.0151705 C45.8838215,61.3072159 45.8118441,61.6026705 45.6756407,61.9009659 C45.5388836,62.2003977 45.3295955,62.4941477 45.0472226,62.7839205 L44.3645446,63.4844886 C44.3374147,63.5123295 44.3374147,63.5401705 44.3645446,63.5680114 L45.8052,65.0464205 C45.8506011,65.0930114 45.8506011,65.1401705 45.8052,65.1861932 L44.7404881,66.279375 Z" id="Fill-20" fill="#FFFFFF"></path>
                            <path d="M48.6631458,56.6579545 C48.6653605,56.4556818 48.586739,56.2715909 48.427835,56.1085227 C48.2683774,55.9448864 48.0912023,55.8653409 47.8952023,55.8698864 C47.6997559,55.8744318 47.5059706,55.975 47.3149537,56.1715909 L46.7009311,56.8017045 C46.6738011,56.8301136 46.6738011,56.8585227 46.7009311,56.8857955 L47.6770554,57.8875 C47.7041853,57.9153409 47.7313153,57.9153409 47.7584452,57.8875 L48.3730215,57.2573864 C48.5640384,57.0607955 48.6609311,56.8613636 48.6631458,56.6579545 Z M49.1514847,61.7261364 C49.1055299,61.7727273 49.0601288,61.7727273 49.0147277,61.7261364 L44.509496,57.1028409 C44.4640949,57.05625 44.4640949,57.0096591 44.5100497,56.9625 L46.366513,55.0579545 C46.6483322,54.7681818 46.9362418,54.5522727 47.2296881,54.4096591 C47.5231345,54.2676136 47.8099367,54.1926136 48.0895412,54.1852273 C48.3696994,54.1789773 48.6404452,54.2346591 48.9023322,54.3534091 C49.1636655,54.4727273 49.406174,54.6465909 49.629304,54.8755682 C49.8518802,55.1045455 50.021304,55.3528409 50.1375751,55.6210227 C50.2538463,55.8897727 50.3081062,56.1704545 50.3014621,56.4619318 C50.2948181,56.7539773 50.2228407,57.0494318 50.0860836,57.3482955 C49.9498802,57.6471591 49.7405921,57.9409091 49.4582192,58.23125 L48.7755412,58.93125 C48.7484113,58.9590909 48.7484113,58.9875 48.7755412,59.0147727 L50.2161966,60.4931818 C50.2615977,60.5397727 50.2615977,60.5869318 50.2161966,60.6329545 L49.1514847,61.7261364 Z" id="Fill-22" fill="#FFFFFF"></path>
                            <path d="M48.8642949,52.6340909 C48.8188938,52.5875 48.8188938,52.5409091 48.8642949,52.49375 L51.7223514,49.5613636 C51.7677525,49.5153409 51.8131537,49.5153409 51.8591085,49.5613636 L52.7394475,50.4653409 C52.7848486,50.5119318 52.7848486,50.5590909 52.7394475,50.6056818 L51.0557299,52.3335227 C51.0280463,52.3613636 51.0280463,52.3892045 51.0551763,52.4170455 L51.7583401,53.1392045 C51.7854701,53.1664773 51.8131537,53.1664773 51.8402836,53.1392045 L53.1895831,51.7539773 C53.2355379,51.7073864 53.280939,51.7073864 53.3263401,51.7539773 L54.1861932,52.6363636 C54.2315944,52.6829545 54.2315944,52.7301136 54.1861932,52.7761364 L52.8368938,54.1613636 C52.8097638,54.1892045 52.8097638,54.2170455 52.8368938,54.2454545 L53.5810294,55.0096591 C53.6081593,55.0369318 53.6352893,55.0369318 53.6629729,55.0090909 L55.3466904,53.28125 C55.3920915,53.2346591 55.4380463,53.2346591 55.4834475,53.28125 L56.3637864,54.1846591 C56.4091876,54.23125 56.4091876,54.2784091 56.3637864,54.325 L53.5057299,57.2573864 C53.4603288,57.3045455 53.4149277,57.3045455 53.3695266,57.2573864 L48.8642949,52.6340909 Z" id="Fill-24" fill="#FFFFFF"></path>
                            <path d="M57.9658373,49.0241477 L56.0888881,47.9803977 L56.0684023,48.0014205 L57.0650124,49.9485795 L57.9658373,49.0241477 Z M54.0956678,47.2661932 C54.0635548,47.2053977 54.0707525,47.1514205 54.1161537,47.1048295 L55.2284814,45.9633523 C55.2738825,45.9161932 55.3264814,45.909375 55.3857243,45.9417614 L61.4606169,48.9542614 C61.5198599,48.9866477 61.526504,49.0264205 61.4811028,49.0730114 L60.3549333,50.2292614 C60.3095322,50.2758523 60.2569333,50.2826705 60.1982441,50.2497159 L59.2625379,49.7383523 L57.7543345,51.2860795 L58.2526395,52.2463068 C58.2841989,52.3065341 58.2775548,52.3605114 58.2321537,52.4071023 L57.1126282,53.5559659 C57.0672271,53.6025568 57.0284701,53.5957386 56.9969107,53.534375 L54.0956678,47.2661932 Z" id="Fill-26" fill="#FFFFFF"></path>
                            <path d="M57.6643627,43.6036932 C57.6189616,43.5571023 57.6189616,43.5105114 57.6643627,43.4633523 L58.7296282,42.3707386 C58.7744757,42.3241477 58.8204305,42.3241477 58.8658316,42.3707386 L62.3334814,45.9292614 C62.3606113,45.9571023 62.3877412,45.9571023 62.4154249,45.9292614 L64.0216282,44.2798295 C64.0670294,44.2338068 64.1129842,44.2338068 64.1583853,44.2798295 L65.0868938,45.2332386 C65.1322949,45.2798295 65.1322949,45.3264205 65.0868938,45.3724432 L62.3057977,48.2264205 C62.2603966,48.2735795 62.2149955,48.2735795 62.1690407,48.2269886 L57.6643627,43.6036932 Z" id="Fill-28" fill="#FFFFFF"></path>
                        </g>
                    </g>
                </g>
            </g>
        </g>
    </g>
</svg>