<?xml version="1.0" encoding="UTF-8"?><!DOCTYPE svg PUBLIC "-//W3C//DTD SVG 1.1//EN" "http://www.w3.org/Graphics/SVG/1.1/DTD/svg11.dtd"><svg xmlns="http://www.w3.org/2000/svg"><symbol id="calendar"><path d="M18.51 2.24h-.418v-.95A1.06 1.06 0 0017.044.217c-.578 0-1.047.481-1.047 1.073v.95h-3.95v-.95A1.06 1.06 0 0011 .217 1.06 1.06 0 009.952 1.29v.95H6.003v-.95c0-.592-.47-1.073-1.047-1.073A1.06 1.06 0 003.908 1.29v.95h-.417C1.61 2.24.086 3.803.086 5.73v12.566c0 1.927 1.524 3.488 3.405 3.488h15.018c1.88 0 3.405-1.561 3.405-3.488V5.73c0-1.927-1.524-3.488-3.405-3.488zM19.818 18.3v-.001c0 .356-.138.697-.384.948a1.295 1.295 0 01-.926.393H3.491c-.723 0-1.31-.6-1.31-1.341V9.779H19.82v8.52zm0-10.662H2.18V5.73c0-.741.587-1.342 1.31-1.342h.416v.95h.001a1.06 1.06 0 001.048 1.073A1.06 1.06 0 006.003 5.34v-.952h3.95v.95A1.06 1.06 0 0011 6.41a1.06 1.06 0 001.048-1.073v-.95h3.949v.95c0 .592.47 1.073 1.047 1.073a1.06 1.06 0 001.048-1.073v-.95h.417c.347 0 .68.14.926.393.246.252.384.592.384.949v1.908z" fill="#603977" fill-rule="nonzero"/></symbol><symbol id="card-mastercard"><g fill="none" fill-rule="evenodd"><path fill="#E6E9F2" fill-rule="nonzero" d="M.71 0h37v25h-37z"/><path fill="#FF5F00" d="M15.503 5.665h7.81v14.036h-7.81z"/><path d="M16 12.684a8.91 8.91 0 013.409-7.019 8.926 8.926 0 100 14.036 8.91 8.91 0 01-3.41-7.017z" fill="#EB001B"/><path d="M33.851 12.684a8.926 8.926 0 01-14.442 7.017 8.926 8.926 0 000-14.036 8.926 8.926 0 0114.442 7.017v.002z" fill="#F79E1B"/></g></symbol><symbol id="card-visa"><g fill="none" fill-rule="evenodd"><path fill="#E6E9F2" fill-rule="nonzero" d="M.71 0h37v25h-37z"/><path fill="#3C58BF" d="M14.32 16.971l1.692-9.514h2.643l-1.639 9.514z"/><path fill="#3C58BF" d="M14.32 16.971l2.168-9.514h2.167l-1.639 9.514zM26.583 7.563c-.528-.212-1.374-.423-2.431-.423-2.643 0-4.546 1.321-4.546 3.224 0 1.427 1.322 2.167 2.379 2.643s1.374.793 1.374 1.216c0 .634-.846.95-1.586.95-1.057 0-1.638-.158-2.537-.528l-.37-.158-.37 2.167c.634.264 1.797.529 3.013.529 2.801 0 4.651-1.322 4.651-3.33 0-1.11-.687-1.956-2.272-2.643-.952-.476-1.533-.74-1.533-1.216 0-.423.475-.846 1.533-.846.898 0 1.532.159 2.008.37l.264.106.423-2.061z"/><path d="M26.583 7.563c-.528-.212-1.374-.423-2.431-.423-2.643 0-4.07 1.321-4.07 3.224 0 1.427.846 2.167 1.903 2.643s1.374.793 1.374 1.216c0 .634-.846.95-1.586.95-1.057 0-1.638-.158-2.537-.528l-.37-.158-.37 2.167c.634.264 1.797.529 3.013.529 2.801 0 4.651-1.322 4.651-3.33 0-1.11-.687-1.956-2.272-2.643-.952-.476-1.533-.74-1.533-1.216 0-.423.475-.846 1.533-.846.898 0 1.532.159 2.008.37l.264.106.423-2.061z" fill="#3C58BF"/><path d="M31.13 7.457c-.635 0-1.11.053-1.375.687L25.79 16.97h2.855l.528-1.586h3.383l.317 1.586h2.537l-2.22-9.514h-2.06zM29.912 13.8c.159-.476 1.057-2.802 1.057-2.802s.212-.581.37-.951l.16.898s.528 2.379.633 2.908h-2.22V13.8z" fill="#3C58BF" fill-rule="nonzero"/><path d="M31.763 7.457c-.634 0-1.11.053-1.374.687L25.79 16.97h2.855l.528-1.586h3.383l.317 1.586h2.537l-2.22-9.514h-1.427zm-1.85 6.343c.212-.529 1.057-2.802 1.057-2.802s.212-.581.37-.951l.16.898s.528 2.379.633 2.908h-2.22V13.8z" fill="#3C58BF" fill-rule="nonzero"/><path d="M9.458 14.117l-.265-1.374c-.475-1.586-2.008-3.33-3.7-4.176l2.379 8.457h2.854l4.282-9.514h-2.855l-2.695 6.607z" fill="#3C58BF"/><path d="M9.458 14.117l-.265-1.374c-.475-1.586-2.008-3.33-3.7-4.176l2.379 8.457h2.854l4.282-9.514h-2.326l-3.224 6.607z" fill="#3C58BF"/><path d="M2.11 7.457l.476.106c3.383.792 5.709 2.8 6.607 5.18L8.242 8.25c-.159-.635-.634-.793-1.216-.793H2.11z" fill="#FFBC00"/><path d="M2.11 7.457c3.383.793 6.185 2.854 7.083 5.233l-.898-3.753a1.29 1.29 0 00-1.269-1.004L2.11 7.457z" fill="#FFBC00"/><path d="M2.11 7.457c3.383.793 6.185 2.854 7.083 5.233l-.634-2.062C8.4 9.994 8.19 9.36 7.45 9.095L2.11 7.457z" fill="#FFBC00"/><g fill="#3C58BF"><path d="M12.1 13.8l-1.797-1.797-.845 2.008-.212-1.321c-.476-1.586-1.98-3.038-3.672-3.884l2.35 8.165h2.855L12.1 13.8zM17.016 16.971l-2.273-2.326-.423 2.326zM23.095 13.694c.211.211.317.37.264.581 0 .635-.846.952-1.586.952-1.057 0-1.638-.159-2.537-.529l-.37-.158-.37 2.167c.634.264 1.797.528 3.013.528 1.691 0 3.066-.475 3.859-1.321l-2.273-2.22zM26.16 16.971h2.485l.528-1.586h3.383l.317 1.586h2.537l-.898-3.858-3.172-3.066.16.846s.528 2.378.633 2.907h-2.22c.212-.529 1.057-2.802 1.057-2.802s.212-.581.37-.951"/></g></g></symbol><symbol id="chevron-down"><path d="M13 1L7 7 1 1" stroke-width="1.44" fill="none" fill-rule="evenodd"/></symbol><symbol id="chevron-left"><path fill="#AE73C1" d="M0 5l.52-.534L4.877 0 6 1.068 2.164 5 6 8.932 4.877 10 .52 5.534z" fill-rule="evenodd"/></symbol><symbol id="chevron-right"><path d="M1 1l6 6-6 6" fill="none" fill-rule="evenodd"/></symbol><symbol id="clothing--primary"><g fill="#662D91" fill-rule="evenodd"><path d="M95.605 102.406h13.592V95.61H95.605v6.797zm0-13.594V44.179a3.398 3.398 0 10-6.797 0v65.024H27.415V44.18a3.399 3.399 0 00-6.796 0v44.632H7.167l6.163-59.927a3.407 3.407 0 012.557-2.959l9.327-2.332.033-.008c.931-.233 2.07-.65 3.433.167L47.804 35.23v15.747a3.398 3.398 0 106.796 0v-11.67c1.71 1.027 2.24 1.474 3.392 1.475 1.141.005 1.673-.435 3.404-1.466v11.661a3.399 3.399 0 006.797 0V35.27l19.35-11.517c1.354-.813 2.483-.405 3.433-.168l.033.009 9.327 2.332a3.406 3.406 0 012.556 2.956l5.95 59.93H95.604zM6.8 102.406h13.819V95.61H6.799v6.797zM35.783 6.96L48.09 27.474l-15.914-9.549a10.145 10.145 0 00-4.753-1.446c.22-4.654 3.66-8.673 8.359-9.52zM64.23 20.391L58 30.778 51.767 20.39H64.23zm8.155-13.594l-4.077 6.797h-20.62l-4.077-6.797h28.774zm7.83.16c4.68.828 8.302 4.811 8.569 9.523-1.654.08-3.272.566-4.727 1.439l-16.204 9.644L80.216 6.957zm29.44 21.252a10.22 10.22 0 00-7.67-8.877l-6.407-1.602C95.938 8.078 88.125 0 78.388 0H37.61c-9.692 0-17.375 8.048-16.972 17.732l-6.4 1.6a10.216 10.216 0 00-7.67 8.867C-.364 95.616.004 91.95.004 92.211v13.593a3.398 3.398 0 003.399 3.4h17.217v3.398A3.398 3.398 0 0024.017 116h68.19a3.398 3.398 0 003.397-3.398v-3.399h16.991a3.398 3.398 0 003.398-3.399V92.211c0-.344.46 4.465-6.337-64.002z"/><path d="M81.63 97.176l-7-13.333c-.864-1.646-2.966-2.314-4.695-1.49-1.728.823-2.43 2.825-1.565 4.472l7 13.332c.864 1.646 2.966 2.314 4.695 1.49 1.728-.823 2.43-2.825 1.565-4.471M46.065 82.353c-1.728-.824-3.83-.156-4.695 1.49l-7 13.333c-.864 1.646-.164 3.648 1.565 4.471 1.73.824 3.831.156 4.695-1.49l7-13.333c.864-1.646.163-3.648-1.565-4.471"/></g></symbol><symbol id="clothing"><g fill="#FFF" fill-rule="evenodd"><path d="M95.605 102.406h13.592V95.61H95.605v6.797zm0-13.594V44.179a3.398 3.398 0 10-6.797 0v65.024H27.415V44.18a3.399 3.399 0 00-6.796 0v44.632H7.167l6.163-59.927a3.407 3.407 0 012.557-2.959l9.327-2.332.033-.008c.931-.233 2.07-.65 3.433.167L47.804 35.23v15.747a3.398 3.398 0 106.796 0v-11.67c1.71 1.027 2.24 1.474 3.392 1.475 1.141.005 1.673-.435 3.404-1.466v11.661a3.399 3.399 0 006.797 0V35.27l19.35-11.517c1.354-.813 2.483-.405 3.433-.168l.033.009 9.327 2.332a3.406 3.406 0 012.556 2.956l5.95 59.93H95.604zM6.8 102.406h13.819V95.61H6.799v6.797zM35.783 6.96L48.09 27.474l-15.914-9.549a10.145 10.145 0 00-4.753-1.446c.22-4.654 3.66-8.673 8.359-9.52zM64.23 20.391L58 30.778 51.767 20.39H64.23zm8.155-13.594l-4.077 6.797h-20.62l-4.077-6.797h28.774zm7.83.16c4.68.828 8.302 4.811 8.569 9.523-1.654.08-3.272.566-4.727 1.439l-16.204 9.644L80.216 6.957zm29.44 21.252a10.22 10.22 0 00-7.67-8.877l-6.407-1.602C95.938 8.078 88.125 0 78.388 0H37.61c-9.692 0-17.375 8.048-16.972 17.732l-6.4 1.6a10.216 10.216 0 00-7.67 8.867C-.364 95.616.004 91.95.004 92.211v13.593a3.398 3.398 0 003.399 3.4h17.217v3.398A3.398 3.398 0 0024.017 116h68.19a3.398 3.398 0 003.397-3.398v-3.399h16.991a3.398 3.398 0 003.398-3.399V92.211c0-.344.46 4.465-6.337-64.002z"/><path d="M81.63 97.176l-7-13.333c-.864-1.646-2.966-2.314-4.695-1.49-1.728.823-2.43 2.825-1.565 4.472l7 13.332c.864 1.646 2.966 2.314 4.695 1.49 1.728-.823 2.43-2.825 1.565-4.471M46.065 82.353c-1.728-.824-3.83-.156-4.695 1.49l-7 13.333c-.864 1.646-.164 3.648 1.565 4.471 1.73.824 3.831.156 4.695-1.49l7-13.333c.864-1.646.163-3.648-1.565-4.471"/></g></symbol><symbol id="direct-debit"><g fill="#1A1919" fill-rule="evenodd"><path d="M45.948 6.95h5.006s4.955-.1 4.905 4.404c-.05 3.353-4.805 3.854-4.805 3.854h-5.106V6.949zm14.974 16.167c.14.655.614 1.377 2.194 1.45 2.102.05 3.304-.75 3.304-.75v1.551s-2.303.55-3.404.55c-1.151 0-4.555-.25-4.555-3.403 0-2.552 2.803-3.353 4.404-3.353 2.803.1 4.155 1.1 4.105 3.954 0 .042-4.612.01-6.048 0zm.006-1.253h3.84s0-1.45-1.852-1.45c-1.394 0-1.85.75-1.988 1.45zm12.148-1.567c.555-.602 1.488-1.085 3.054-1.085 3.102 0 3.603 2.602 3.553 3.303-.05.701-.3 3.354-3.904 3.354-1.36 0-2.193-.465-2.703-1.042v.841h-2.452V16.66h2.452v3.638zm2.103 4.17c1.45-.05 2.101-1.3 2.101-1.901s-.35-1.852-2.201-1.852c-1.438 0-1.875 1.085-2.003 1.616v.653c.126.54.566 1.485 2.103 1.485zm21.172-.25l.05 1.401s-1.152.25-1.902.25c-.751 0-2.704-.45-2.704-2.351v-2.904h-2.052v-1.301h2.052V17.76h2.503v1.55h2.053v1.302h-2.053v2.503s0 1.251 1.001 1.251 1.052-.15 1.052-.15zM88.742 8.3h2.903v6.958h2.453V8.3h2.953V6.85h-8.309V8.3zm-1 .35l.3-1.45s-1.251-.551-3.454-.551c-2.152 0-5.605 1.201-5.605 4.455 0 3.203 3.653 4.304 5.905 4.304 2.253 0 3.003-.35 3.003-.35l-.25-1.602s-1 .3-2.703.3c-1.651-.05-3.353-1.351-3.353-2.803.05-1.301 1.552-2.752 3.504-2.752 1.501 0 2.653.45 2.653.45zM65.618 6.9s4.105-.201 4.105 2.202c0 2.051-2.352 2.202-2.352 2.202s.65.1.95.55c.25.4 1.902 3.404 1.902 3.404h-2.502s-.4-.5-.6-.851c-.151-.35-.601-1.101-.601-1.101s-.35-1.251-1.552-1.251c-.03 0-.52-.02-.901-.033v3.236h-2.402V6.899h3.953zm-1.551 3.753h1.301s1.802-.1 1.902-1.201C67.32 8.4 65.52 8.25 65.52 8.25h-1.452v2.403zm10.06 1.301h4.004v-1.551h-4.003V8.5h4.354V6.899h-6.807v8.359h6.857v-1.502h-4.404v-1.802zm9.76 6.407h2.453v-1.702h-2.452v1.702zm0 7.307h2.453v-6.356h-2.452v6.356zM57.16 15.258h2.403V6.899H57.16v8.359zM45.948 17.36h5.006s4.955-.1 4.905 4.404c-.05 3.354-4.805 3.854-4.805 3.854h-5.106V17.36zm2.452 6.707h1.603s3.303-.2 3.303-2.753c0-2.552-3.504-2.803-3.504-2.803H48.4v5.556zm0-10.41h1.603s3.303-.251 3.303-2.754c0-2.603-3.504-2.802-3.504-2.802H48.4v5.555zM23.475 11.925v16.747s-9.71-1.752-9.71-8.41c0-5.308 7.188-7.648 9.71-8.337zm0-.312c-5.836-.423-19.07 2.313-19.07 8.3 0 3.903 7.007 9.61 18.42 9.76.45 0 13.413-.5 13.213-14.415C35.87 3.57 27.123 1.524 24.326 1.168V.456c11.15.708 19.92 7.413 19.92 15.552 0 8.61-9.81 15.617-21.872 15.617-12.063 0-21.823-7.007-21.823-15.617C.551 7.4 10.311.393 22.374.393c.369 0 .736.006 1.1.02v11.2z"/></g></symbol><symbol id="donate-bank"><path d="M36.958 31.006c0 1.244-1.066 2.31-2.31 2.132H4.442c-.533 0-1.243-.355-1.599-.71-.533-.356-.71-.889-.71-1.6 0-1.243 1.065-2.31 2.31-2.31h.177v-.177c.178-.533.178-1.066.178-1.6 0-2.31.177-4.62.355-6.929l.178-1.777c0-.888.177-1.954.177-3.02v-.178h-.533c-.533 0-1.066-.356-1.066-1.066H1.244C.355 13.77 0 13.415 0 12.527V11.46c0-.533.178-.889.71-1.244 4.443-2.488 9.063-4.975 13.327-7.463 1.422-.888 3.021-1.599 4.442-2.487a1.614 1.614 0 011.777 0c5.864 3.375 11.905 6.751 17.946 10.128.533.355.711.71.711 1.243v1.066c0 .711-.355 1.067-1.066 1.067h-2.843c0 .533-.355 1.066-1.066 1.066h-.533v.533c.177 1.777.177 3.553.355 5.153.178.71.178 1.599.178 2.31.177 1.954.177 3.908.355 5.863h.356c.533 0 1.243.355 1.599.71.533.356.71.89.71 1.6zM19.9 14l-2.1 1.882 1.95 2.17H13v2.895h6.75l-1.95 2.171L19.9 25l5.1-5.5-5.1-5.5z" fill="#AE73C1" fill-rule="nonzero"/></symbol><symbol id="donate-cheque"><path d="M3.837 23.181L14.846 6.98l-2.041-1.384a.338.338 0 00-.467.09L6.41 14.39a1.88 1.88 0 01-3.108-2.116l5.89-8.693a4.097 4.097 0 015.7-1.088l2.04 1.384 1.195-1.761A5.296 5.296 0 0125.33.91a5.292 5.292 0 011.561 7.132L12.58 29.123a22.228 22.228 0 01-10.716 8.39 1.378 1.378 0 01-1.855-1.27 22.224 22.224 0 013.828-13.061zm19.308 10.717c-1.951 0-2.964 1.159-3.637 1.93-.589.672-.728.77-1.088.77-.36 0-.505-.101-1.088-.774-.674-.77-1.694-1.93-3.642-1.93-1.949 0-2.935 1.126-3.608 1.892a1.687 1.687 0 000 2.412 1.693 1.693 0 002.397 0l.051-.051.068-.076c.589-.673.728-.774 1.088-.774.36 0 .505.1 1.089.774.673.77 1.693 1.929 3.642 1.929 1.948 0 2.964-1.159 3.637-1.93.588-.672.727-.773 1.088-.773.36 0 .504.1 1.092.774.673.77 1.693 1.929 3.642 1.929 1.948 0 2.964-1.159 3.637-1.926l-.002.002a1.695 1.695 0 00-1.365-2.877c-.464.045-.89.278-1.175.646-.59.668-.728.77-1.092.77-.364 0-.505-.1-1.092-.773-.658-.78-1.692-1.944-3.643-1.944h.001z" fill="#AE73C1" fill-rule="nonzero"/></symbol><symbol id="download"><g fill-rule="evenodd"><path d="M13.332 9.58h-.757a.249.249 0 00-.253.245v3.173a.249.249 0 01-.254.245h-9.58a.249.249 0 01-.254-.245V9.825a.249.249 0 00-.253-.245h-.755a.247.247 0 00-.253.245v3.418c0 .675.563 1.221 1.26 1.221h10.091c.698 0 1.261-.546 1.261-1.221V9.825a.249.249 0 00-.253-.245z"/><path d="M6.782 10.033L3.71 7.06a.621.621 0 010-.892.661.661 0 01.921 0l2.033 1.98v-6.92a.641.641 0 011.282 0v6.906l2.033-1.98a.661.661 0 01.921 0 .621.621 0 010 .892l-3.14 3.041-.224.216a.332.332 0 01-.454.008l-.16-.145a6 6 0 01-.14-.132z" fill-rule="nonzero"/></g></symbol><symbol id="dropdown-arrow"><path fill="#FFF" d="M6.5 8l-.694-.694L0 1.498 1.389 0 6.5 5.115 11.611 0 13 1.498 7.194 7.306z" fill-rule="evenodd"/></symbol><symbol id="email"><path d="M1.56.486a1.45 1.45 0 00-.62.143L9.4 8.81c.179.173.594.173.772 0l8.46-8.18a1.45 1.45 0 00-.62-.143H1.56zm-1.307.831a1.45 1.45 0 00-.144.62v10.161c0 .804.648 1.452 1.452 1.452h16.45c.805 0 1.452-.648 1.452-1.452V1.938a1.45 1.45 0 00-.144-.62l-8.467 8.187a1.54 1.54 0 01-2.132 0L.253 1.317z" fill="#CAB6D9" fill-rule="nonzero"/></symbol><symbol id="facebook"><path d="M22.434 42H2.318A2.318 2.318 0 010 39.682V2.318A2.318 2.318 0 012.318 0h37.364A2.318 2.318 0 0142 2.318v37.364A2.318 2.318 0 0139.682 42H28.98V25.735h5.46l.817-6.338H28.98V15.35c0-1.835.51-3.086 3.142-3.086l3.356-.001v-5.67c-.58-.077-2.573-.25-4.89-.25-4.84 0-8.153 2.954-8.153 8.38v4.674H16.96v6.338h5.474V42z" fill="#662D91" fill-rule="evenodd"/></symbol><symbol id="filter-slider-arrow"><path d="M57.75 115L77 95.833 57.75 76.667 38.5 57.5l19.25-19.167L77 19.167 57.75 0 38.5 19.167 19.25 38.333 0 57.5l19.25 19.168L38.5 95.833z" fill="#662D91" fill-rule="evenodd"/></symbol><symbol id="giftaid-it"><path d="M92.13 9.324c-.232.263-.173 1.094.332 1.524.38.326.435.384.446.648.022.483.356.51.874.503.632-.009 1.15-.412 1.215-1.234.063-.821-.803-1.522-1.498-1.68-.695-.16-1.066-.102-1.368.24m11.527 12.926s-.013 1.338.08 2.482c.085 1.025.4 3.175.727 3.868.506 1.072 1.579 1.072 2.405.547 1.081-.689.57-1.975.157-2.404-.36-.377-1.232-.861-1.497-2.477-.155-.956-.029-5.268.227-6.776.166-.978.734-3.048 1.18-4.026.433-.94 3.026-6.33 3.063-8.14.016-.789-.717-1.443-1.918-1.307-1.2.138-1.498 1.202-1.5 1.899-.002.694-1.274 5.58-1.338 5.801-.105.334-.313 2.332-.933 2.337-1.455.01-2.646.436-3.815 1.415-.596.503-2.626 2.252-3.799 4.076-.53.827-2.948 4.27-2.676 8.38.25 3.734 2.61 3.073 3.286 2.954 3.08-.55 5.245-6.16 5.56-6.848.554-1.223.366-.893.79-1.78m-1.917-3.36s1.1-.916 1.566-.892c.217.01-.162.59.595.946.401.192-.44 2.777-2.103 5.256-3.815 5.697-5.626 5.44-5.783 3.709-.323-3.608 4.618-8.285 5.725-9.02m22.326-11.823c.61 1.399 1.655.905 1.833.543.178-.36.32-.433.827-.672.929-.436-.676-2.394-2.202-1.841-.318.115-.35.58-.35.58.042.41-.317.923-.108 1.39m-4.004 20.968c1.825 1.809 3.64.662 4.574-.129 2.865-2.413 8.77-13.421 8.77-13.421.033.37-2.46 12.993.875 14.392 2.139.895 7.116-3.556 7.685-3.968 3.286-2.38 1.273-3.248.64-3.249-1.697-.007-1.391 1.28-1.854 1.857-.765.956-3.836 4.27-5.342 3.389-.809-.475-.61-3.279-.529-3.925.473-6.683.6-7.888.971-9.426.207-.855 1.201-.83 1.81-.95 8.203-1.588 9.675-.946 10.7-1.47.81-.418.956-2.22-.195-2.61-.529-.173-1.196.248-2.403.72-1.202.466-7.257 1.869-8.148 2.008-.82.125-.996.003-1.194-.266-.197-.267.18-3.402 1.356-6 .512-1.126.526-2.847-1.145-2.98-.688-.052-1.27.154-1.533.768-.26.61-.759 6.178-.878 6.548-.117.367-.752.653-.89 1.288-.14.636-.044 1.03-.452 1.175-.412.146-1.542.259-2.005.378-.49.124-.778 1.104-.797 1.67-.017.567.855.23 1.274.166.48-.074 1.655-.687.82.367-.317.401-6.012 9.736-8.236 11.658-2.561 2.21-2.377-2.132-2.313-2.873.387-4.43 2.235-7.402 2.5-8.106.26-.71.372-2.81-1.81-2.346-.688.144-1.063.87-1.094 1.077-.006.03-.006.047-.006.047-.22 2.071-4.008 11.376-1.151 14.211m-65.044-8.713c-.562.126-1.683.348-2.387.465-1.069.176-1.65.84-1.61 1.51.04.675.274.991 1.226.813.862-.161 1.598-.885 2.352-.887 0 0-1.556 6.48-1.657 7.348-.102.867-.565 3.244.383 4.592 2.105 3 6.311-.44 6.705-.814.29-.276 2.95-2.578 3.85-4.425.456-.936-.32-1.144-.848-1.333-.526-.193-1.638.139-1.794.824-.337 1.487-4.02 5.503-5.842 4.696-2.148-.949 1.727-11.596 1.727-11.596.463-.204 2.802-.8 5.017-1.363 2.555-.646 10.367-2.17 8.603-4.473-.861-1.127-3.091.589-3.848.949-2.708 1.28-9.335 3.163-9.335 3.163s.86-3.828 1.137-4.58c.322-.864 1.502-1.429 1.674-2.965.202-1.788-1.98-2.602-3.02-.645-.215.402-.512 1.51-.541 1.537-.28.266-2.685 1.215-5.051 2.328-.747.352-4.984 1.872-4.992 1.861.006-.03 1.286-4.04 2.771-7.382.987-2.224 2.378-5.319 4.841-5.947 2.309-.587 1.22 1.786 2.26 2.401 1.315.783 2.123-.204 2.325-1.147.159-.738.116-4.613-3.875-4.226-3.797.37-6.824 6.094-10.565 16.788-.041.043-3.013 1.938-5.476 2.424-1.22.242-1.758.346-1.92.775-.418 1.107.308 1.914.448 2.026.702.828 6.19-2.758 6.183-2.733-.111.147-4.612 17.079-4.648 17.278-.26 1.41-1.711 5.128-1.633 6.816.045.867.389 2.675 1.654 2.593 2.653.172 2.141-3.505 1.963-4.179-.371-1.395 1.533-10.62 3.242-17.417.35-1.384 1.066-3.66 1.19-4.202.21-.918.753-1.528 1.393-1.818 0 0 9.532-4.437 9.622-4.41l-1.524 5.355m-18.257-7.61c-.156-.273-1-1.132-2.1-.465-1.64.993.25 2.366.554 3.039.301.67 1.939 1.235 1.701-.092-.035-.19.295-1.692-.155-2.482M31.726 20c-1.062.021-.975.853-1.198 1.581-.216.726-2.047 7.253-2.28 8.422-.232 1.17-.391 2.222-.056 3.827.343 1.642 2.078 1.162 2.263.875.846-1.288.095-1.666.068-2.566-.022-.94.215-1.926.394-3.2.064-.451.192-2.515.254-2.795.073-.302.67-2.6 1.532-3.996.369-.6.694-2.181-.977-2.148m-9.953 23.303c-.131.243-.266.484-.408.723-1.409 2.41-3.257 4.56-5.55 6.108-3.106 2.099-6.022 2.903-9.282 2.864-1.893-.023-3.722-.338-5.28-1.36-1.276-.836-1.46-2.144-1.073-3.007.539-1.202 2.217-1.086 2.932-.394 1.782 1.72 2.846 2.389 5.141 2.274 1.802-.09 3.812-.689 5.377-1.629 9.483-5.701 9.396-15.95 9.781-22.125.04-.376-.157-.104-.223.102-.34 1.038-.911 2.34-1.694 3.798-.677 1.266-1.968 3.117-4.014 4.508-1.2.816-3.151 1.213-4.524.29-.498-.335-3.409-2.091-.942-7.317 1.553-3.29 4.817-5.57 5.555-6.057 1.8-1.183 3.088-1.747 4.437-1.639.688.051.787.33 1.299.315.29-.351.45-.61.929-.745.643-.105 1.406.446 1.7 1.498.293 1.051-.47 2.736-.664 3.547 0 0 .677 10.524-3.497 18.246m-.436-21.289c-2.066.209-5.831 4.878-6.608 6.536-.793 1.694-1.08 3.326-.137 4.009 1.948 1.414 3.963-.984 4.556-1.542.365-.344 2.93-2.958 3.574-5.615.425-1.752.621-3.589-1.385-3.388m70.338-2.895c-.787 1.344-1.23 2.952-1.438 4.424-.105.777-.229 4.15-.202 4.609 0 .046.107 1.579.28 2.216.1.366.717 1.68-1.266 1.958-1.167.161-1.144-2.8-1.167-3.284-.043-1.033.124-4.664.231-5.201.117-.553-.11.032-.326.392-.495.84-1.07 1.976-1.76 3.093-.905 1.47-2.923 4.972-5.676 4.762-1.03-.077-2.077-.211-2.674-3.124-.23-1.115-.141-2.583-.12-3.462-.028-.181-.002-.39-.152-.305-.975 2.307-4.142 9.11-7.72 7.58-1.657-.705-2.474-2.876-.644-7.113 1.782-4.13 6.277-9.252 8.069-9.596 1.595-.306 1.761.507 1.761.507.144-.3 1.14-.264 1.358.167.29.577.484.678.291 2.2-.109.878-.914 6.372-.776 8.26.064.886.213 3.064 1.102 3.168 1.548.19 3.423-3.15 3.637-3.501.418-.683 3.759-6.364 4.169-7.194.443-.895.723-1.547 1.008-2.116.284-.57 1.147-.632 1.896-.114.753.518.375 1.234.119 1.674M75.29 26.04c4.383-6.193 2.184-7.145 1.96-7.031-4.262 2.167-7.507 8.69-7.235 10.862.374 2.99 2.948-.543 5.275-3.83" fill="#603977" fill-rule="nonzero"/></symbol><symbol id="heart-active--small"><g fill="#F096C8" fill-rule="nonzero"><path d="M3.63 1.078C1.687 1.872.716 2.475.716 2.886v2.377l1.457 1.883 3.801 3.666 1.954-2.08 1.553-1.586 2.07-1.883v-1.76l-.563-1.509-1.507-.39-1.267-.526-1.13.916-.95.892L3.63 1.078z"/><path d="M6.043 2.234C5.488 1.582 4.559.749 3.283.749A3.312 3.312 0 00-.018 4.064c0 .43.083.86.25 1.249.29.72 1.733 2.163 3.744 4.119.735.707 1.36 1.331 1.665 1.678.11.125.25.18.416.18.166 0 .305-.069.416-.18.305-.347.943-.957 1.664-1.678 1.998-1.956 3.44-3.398 3.745-4.12.167-.402.25-.818.25-1.248C12.104 2.234 10.62.75 8.803.75c-1.276 0-2.205.833-2.76 1.485zm4.951 1.83c0 .292-.055.569-.166.833-.236.568-2.275 2.552-3.481 3.744-.5.486-.957.944-1.304 1.29-.347-.36-.805-.804-1.304-1.29C3.52 7.45 1.48 5.465 1.258 4.897A2.202 2.202 0 013.297 1.86c.79-.001 1.525.512 2.302 1.608a.56.56 0 00.915 0c.763-1.096 1.498-1.609 2.289-1.609a2.2 2.2 0 012.191 2.205z"/></g></symbol><symbol id="heart-active"><g fill="#F096C8" fill-rule="nonzero"><path d="M9.812 1.761C5.016 3.721 2.617 5.21 2.617 6.225v5.868l3.598 4.65 9.385 9.052 4.825-5.135 3.833-3.916 5.114-4.651V7.749L27.98 4.023l-3.723-.963-3.127-1.299-2.79 2.262-2.347 2.202-6.182-4.464z"/><path d="M15.77 4.614C14.4 3.004 12.105.95 8.955.95 4.468.95.804 4.614.804 9.135c0 1.061.205 2.123.616 3.082.72 1.78 4.281 5.342 9.247 10.171 1.815 1.747 3.356 3.288 4.11 4.144.274.308.616.445 1.027.445.41 0 .753-.171 1.027-.445.754-.856 2.33-2.363 4.11-4.144 4.931-4.829 8.493-8.39 9.247-10.171.41-.993.616-2.02.616-3.082C30.735 4.614 27.071.95 22.584.95c-3.15 0-5.444 2.054-6.814 3.664zm12.226 4.52c0 .72-.137 1.405-.411 2.055-.582 1.404-5.617 6.302-8.596 9.247-1.233 1.199-2.363 2.329-3.22 3.185-.855-.89-1.986-1.986-3.218-3.185-3.014-2.945-8.048-7.843-8.596-9.247a5.242 5.242 0 01-.411-2.054 5.437 5.437 0 015.445-5.446c1.952 0 3.767 1.268 5.685 3.973a1.38 1.38 0 001.13.582 1.38 1.38 0 001.13-.582c1.884-2.705 3.699-3.973 5.65-3.973 2.98 0 5.412 2.432 5.412 5.446z"/></g></symbol><symbol id="heart-inactive--small-light"><path d="M6.043 2.234C5.488 1.582 4.559.749 3.283.749A3.312 3.312 0 00-.018 4.064c0 .43.083.86.25 1.249.29.72 1.733 2.163 3.744 4.119.735.707 1.36 1.331 1.665 1.678.11.125.25.18.416.18.166 0 .305-.069.416-.18.305-.347.943-.957 1.664-1.678 1.998-1.956 3.44-3.398 3.745-4.12.167-.402.25-.818.25-1.248C12.104 2.234 10.62.75 8.803.75c-1.276 0-2.205.833-2.76 1.485zm4.951 1.83c0 .292-.055.569-.166.833-.236.568-2.275 2.552-3.481 3.744-.5.486-.957.944-1.304 1.29-.347-.36-.805-.804-1.304-1.29C3.52 7.45 1.48 5.465 1.258 4.897A2.202 2.202 0 013.297 1.86c.79-.001 1.525.512 2.302 1.608a.56.56 0 00.915 0c.763-1.096 1.498-1.609 2.289-1.609a2.2 2.2 0 012.191 2.205z" fill="#FFF" fill-rule="nonzero"/></symbol><symbol id="heart-inactive"><g fill-rule="nonzero" fill="none"><path d="M9.812 1.761C5.016 3.721 2.617 5.21 2.617 6.225v5.868l3.598 4.65 9.385 9.052 4.825-5.135 3.833-3.916 5.114-4.651V7.749L27.98 4.023l-3.723-.963-3.127-1.299-2.79 2.262-2.347 2.202-6.182-4.464z"/><path d="M15.77 4.614C14.4 3.004 12.105.95 8.955.95 4.468.95.804 4.614.804 9.135c0 1.061.205 2.123.616 3.082.72 1.78 4.281 5.342 9.247 10.171 1.815 1.747 3.356 3.288 4.11 4.144.274.308.616.445 1.027.445.41 0 .753-.171 1.027-.445.754-.856 2.33-2.363 4.11-4.144 4.931-4.829 8.493-8.39 9.247-10.171.41-.993.616-2.02.616-3.082C30.735 4.614 27.071.95 22.584.95c-3.15 0-5.444 2.054-6.814 3.664zm12.226 4.52c0 .72-.137 1.405-.411 2.055-.582 1.404-5.617 6.302-8.596 9.247-1.233 1.199-2.363 2.329-3.22 3.185-.855-.89-1.986-1.986-3.218-3.185-3.014-2.945-8.048-7.843-8.596-9.247a5.242 5.242 0 01-.411-2.054 5.437 5.437 0 015.445-5.446c1.952 0 3.767 1.268 5.685 3.973a1.38 1.38 0 001.13.582 1.38 1.38 0 001.13-.582c1.884-2.705 3.699-3.973 5.65-3.973 2.98 0 5.412 2.432 5.412 5.446z" fill="#F096C8"/></g></symbol><symbol id="instagram"><path d="M21 0c5.703 0 6.418.024 8.658.126 2.235.102 3.762.457 5.098.977a10.293 10.293 0 013.72 2.422 10.295 10.295 0 012.422 3.72c.519 1.335.874 2.862.976 5.097.102 2.24.126 2.955.126 8.658 0 5.703-.024 6.418-.126 8.658-.102 2.235-.457 3.762-.976 5.098a10.295 10.295 0 01-2.423 3.72 10.295 10.295 0 01-3.72 2.422c-1.335.519-2.862.874-5.097.976-2.24.102-2.955.126-8.658.126-5.703 0-6.418-.024-8.658-.126-2.235-.102-3.762-.457-5.098-.976a10.295 10.295 0 01-3.72-2.423 10.293 10.293 0 01-2.421-3.72c-.52-1.335-.875-2.862-.977-5.097C.024 27.418 0 26.703 0 21c0-5.703.024-6.418.126-8.658.102-2.235.457-3.762.977-5.098a10.293 10.293 0 012.422-3.72 10.293 10.293 0 013.72-2.421C8.58.583 10.106.228 12.341.126 14.582.024 15.297 0 21 0zm0 3.784c-5.607 0-6.271.021-8.486.122-2.047.094-3.16.436-3.9.723-.98.381-1.679.836-2.414 1.571-.735.735-1.19 1.435-1.57 2.415-.288.74-.63 1.852-.724 3.9-.1 2.214-.122 2.878-.122 8.485 0 5.607.021 6.271.122 8.486.094 2.047.436 3.16.723 3.9.381.98.836 1.679 1.571 2.414.735.735 1.435 1.19 2.415 1.57.74.288 1.852.63 3.9.724 2.213.1 2.877.122 8.485.122s6.272-.021 8.486-.122c2.047-.094 3.16-.436 3.9-.723.98-.381 1.679-.836 2.414-1.571.735-.735 1.19-1.435 1.57-2.415.288-.74.63-1.852.724-3.9.1-2.214.122-2.878.122-8.485 0-5.607-.021-6.271-.122-8.486-.094-2.047-.436-3.16-.723-3.9-.381-.98-.836-1.679-1.571-2.414-.735-.735-1.435-1.19-2.415-1.57-.74-.288-1.852-.63-3.9-.724-2.214-.1-2.878-.122-8.485-.122zm0 6.432c5.956 0 10.784 4.828 10.784 10.784S26.956 31.784 21 31.784 10.216 26.956 10.216 21 15.044 10.216 21 10.216zM21 28a7 7 0 100-14 7 7 0 000 14zM34.73 9.79a2.52 2.52 0 11-5.04 0 2.52 2.52 0 015.04 0z" fill="#662D91" fill-rule="evenodd"/></symbol><symbol id="logo-graphic"><g fill-rule="evenodd"><path d="M22.107 33.794c-.032-.032 2.345-2.468 7.133-7.307.032-.031 2.467 2.346 7.306 7.134.032.032 2.468-2.346 7.306-7.134.032-.031-2.374-2.496-7.22-7.392l-7.306-7.307-7.22-7.22c-.031-.031-2.467 2.347-7.306 7.134-.032.032 2.346 2.467 7.134 7.307.032.031-2.346 2.467-7.134 7.306-.032.031-2.467-2.346-7.306-7.134-.032-.032-2.467 2.346-7.307 7.134-.031.031 2.376 2.496 7.22 7.392l7.307 7.307 7.22 7.22c.032.031 2.467-2.347 7.306-7.134.032-.032.032-.09 0-.173l-7.133-7.133zM45.948 12.702A7.233 7.233 0 1035.72 2.472a7.233 7.233 0 0010.228 10.23"/></g></symbol><symbol id="mail"><path d="M147 53.033V36.75a5.251 5.251 0 00-5.25-5.25h-24.076L87.712 1.538a5.248 5.248 0 00-7.424 0L50.327 31.5H26.25A5.251 5.251 0 0021 36.75v16.283C9.03 55.467 0 66.076 0 78.75v63C0 156.222 11.778 168 26.25 168h115.5c14.472 0 26.25-11.778 26.25-26.25v-63c0-12.674-9.03-23.284-21-25.717zM84 12.675L102.827 31.5H65.174L84 12.675zM31.5 42h105v34.577l-52.5 52.5-52.5-52.5V42zm126.001 99.75c0 8.69-7.062 15.75-15.75 15.75H26.25c-8.69 0-15.75-7.06-15.75-15.75v-63c0-6.835 4.402-12.605 10.5-14.779v14.78c0 1.394.553 2.727 1.537 3.711l27.789 27.789-27.789 27.788a5.248 5.248 0 000 7.424 5.227 5.227 0 003.712 1.538 5.227 5.227 0 003.712-1.538l27.789-27.788 22.538 22.538A5.227 5.227 0 0084 141.752a5.227 5.227 0 003.712-1.538l22.538-22.538 27.788 27.788a5.227 5.227 0 003.712 1.538 5.227 5.227 0 003.712-1.538 5.248 5.248 0 000-7.424l-27.788-27.788 27.788-27.789a5.246 5.246 0 001.538-3.712V63.972c6.098 2.174 10.5 7.944 10.5 14.78v63zM55.125 63.002a5.251 5.251 0 015.25-5.25h47.25a5.251 5.251 0 015.25 5.25 5.251 5.251 0 01-5.25 5.25h-47.25a5.251 5.251 0 01-5.25-5.25zm52.5 26.25h-47.25a5.251 5.251 0 01-5.25-5.25 5.251 5.251 0 015.25-5.25h47.25a5.251 5.251 0 015.25 5.25 5.251 5.251 0 01-5.25 5.25z" fill="#7332AA" fill-rule="nonzero"/></symbol><symbol id="my-account"><g fill="#603977" fill-rule="nonzero"><path d="M4.608 9a.39.39 0 00-.087.01c-1.63.357-2.776.915-3.513 1.798C.271 11.692 0 12.853 0 14.252V16.4c0 .163.08.314.213.4 6.711 4.386 12.981 4.147 18.597-.015a.478.478 0 00.19-.385v-2.15c0-1.296-.324-2.423-1.042-3.306-.718-.882-1.798-1.5-3.24-1.9v.001a.438.438 0 00-.442.128c-.635.688-1.314 1.576-2.063 2.273-.75.698-1.539 1.181-2.387 1.175h-.017c-2.035.065-3.584-2.132-4.874-3.484h-.001A.44.44 0 004.608 9z"/><path d="M9 0C6.79 0 5 1.923 5 4.273c0 1.183.418 2.773 1.096 4.14.34.684.745 1.308 1.223 1.781C7.797 10.668 8.366 11 9 11c.634 0 1.203-.332 1.681-.806.478-.473.884-1.098 1.223-1.781C12.582 7.045 13 5.456 13 4.273 13 1.92 11.197 0 9 0z"/></g></symbol><symbol id="school" viewBox="0 0 116 116"><g fill="none" fill-rule="evenodd"><path d="M67.606 79.81c11.93-8.225 28.266-5.972 28.469-5.94a3.751 3.751 0 003.01-.874 3.786 3.786 0 001.305-2.862V19.856h4.092v62.316c-7.467-1.97-22.179-4.89-36.876-2.362zm-7.848-57.585C68.048 8.118 85.647 7.306 92.874 7.617V66.04c-3.162-.128-7.776-.052-12.865.879-8.153 1.49-14.998 4.715-20.25 9.483V22.225zm-7.516 54.178c-5.255-4.768-12.098-7.992-20.251-9.483-3.926-.718-7.566-.927-10.477-.927-.863 0-1.665.018-2.388.048V7.607c7.223-.327 24.795.45 33.116 14.618v54.178zm-44.726 5.77V19.855h4.094v50.278c0 1.098.477 2.139 1.303 2.856a3.75 3.75 0 003.005.88c.208-.032 16.535-2.283 28.463 5.938-14.693-2.524-29.4.396-36.865 2.364zm100.726-69.867l-7.852-.002V4.14A3.77 3.77 0 0097.188.407c-.32-.048-7.969-1.164-17.18.52C69.743 2.801 61.554 7.43 56 14.426 50.447 7.43 42.257 2.802 31.99.927 22.78-.758 15.133.358 14.813.406A3.77 3.77 0 0011.61 4.14v8.163H3.758C1.683 12.304 0 13.994 0 16.08v71.143c0 1.222.59 2.37 1.581 3.078.993.708 2.264.89 3.413.488.283-.098 28.446-9.753 49.446-.131.991.455 2.129.455 3.12 0 20.94-9.597 49.164.033 49.444.13a3.741 3.741 0 003.414-.488A3.78 3.78 0 00112 87.225V16.08a3.768 3.768 0 00-3.758-3.775z" fill="#FFF" mask="url(#mask-2)"/></g></symbol><symbol id="search"><path d="M12.9 11.427L17 15.52 15.528 17l-4.096-4.087a7.131 7.131 0 01-9.32-.652A7.182 7.182 0 010 7.194 7.185 7.185 0 012.082 2.11a7.128 7.128 0 0110.112-.013 7.182 7.182 0 012.096 5.075 7.182 7.182 0 01-1.39 4.254zM7.177 2.092A5.053 5.053 0 003.584 3.56a5.091 5.091 0 00-.032 7.193 5.05 5.05 0 007.166.017 5.089 5.089 0 001.488-3.597 5.08 5.08 0 00-1.468-3.584 5.04 5.04 0 00-3.56-1.497z" fill="#603977" fill-rule="evenodd"/></symbol><symbol id="share-light"><path d="M12.645 12.5c-.702 0-1.338.27-1.833.703L5.99 10.132c.03-.168.05-.34.05-.516s-.02-.348-.05-.516l4.822-3.071c.495.432 1.13.703 1.833.703 1.563 0 2.83-1.291 2.83-2.884 0-1.592-1.267-2.884-2.83-2.884-1.563 0-2.83 1.292-2.83 2.884 0 .176.02.348.05.516l-4.822 3.07a2.779 2.779 0 00-1.833-.702C1.647 6.732.38 8.023.38 9.616c0 1.592 1.267 2.884 2.83 2.884.703 0 1.338-.272 1.833-.703l4.823 3.07c-.03.168-.051.34-.051.516 0 1.593 1.267 2.884 2.83 2.884 1.563 0 2.83-1.291 2.83-2.884 0-1.592-1.267-2.883-2.83-2.883z" fill="#FFF" fill-rule="evenodd"/></symbol><symbol id="share"><path d="M12.645 12.5c-.702 0-1.338.27-1.833.703L5.99 10.132c.03-.168.05-.34.05-.516s-.02-.348-.05-.516l4.822-3.071c.495.432 1.13.703 1.833.703 1.563 0 2.83-1.291 2.83-2.884 0-1.592-1.267-2.884-2.83-2.884-1.563 0-2.83 1.292-2.83 2.884 0 .176.02.348.05.516l-4.822 3.07a2.779 2.779 0 00-1.833-.702C1.647 6.732.38 8.023.38 9.616c0 1.592 1.267 2.884 2.83 2.884.703 0 1.338-.272 1.833-.703l4.823 3.07c-.03.168-.051.34-.051.516 0 1.593 1.267 2.884 2.83 2.884 1.563 0 2.83-1.291 2.83-2.884 0-1.592-1.267-2.883-2.83-2.883z" fill="#662D91" fill-rule="evenodd"/></symbol><symbol id="sign-in-facebook"><path d="M12.99.005L9.778 0c-3.61 0-5.942 2.393-5.942 6.097v2.811H.606a.505.505 0 00-.505.505v4.073c0 .28.226.505.505.505h3.23V24.27c0 .279.226.505.505.505h4.214c.28 0 .506-.226.506-.505V13.99h3.776c.28 0 .506-.226.506-.505l.001-4.073a.506.506 0 00-.505-.505H9.06V6.525c0-1.145.273-1.727 1.765-1.727h2.164a.505.505 0 00.505-.506V.51a.505.505 0 00-.505-.505z" fill-rule="evenodd"/></symbol><symbol id="sign-in-google"><path d="M20.737 9.334H11.48v3.086h5.648a6.613 6.613 0 11-1.608-6.634l2.24-2.435A9.886 9.886 0 0010.818.517c-5.479 0-9.92 4.441-9.92 9.92 0 5.478 4.441 9.92 9.92 9.92 4.798 0 9-3.409 9.92-7.937V9.334z" fill-rule="evenodd"/></symbol><symbol id="sign-in-microsoft"><g fill-rule="nonzero"><path d="M.976 0h9v9h-9zM.976 10h9v9h-9zM10.934 0h9v9h-9zM10.934 10h9v9h-9z"/></g></symbol><symbol id="supplies"><g fill="#FFF" fill-rule="nonzero"><path d="M49.5 36h-9v13.5H27v9h13.5V72h9V58.5H63v-9H49.5z"/><path d="M86.45 22.125c-10.32 0-19.715-8.39-19.715-17.6V0H24.27v4.525c0 9.21-9.396 17.6-19.715 17.6H0V65.36c0 23.695 39.244 40.996 43.716 42.888L45.5 109l1.784-.751C51.756 106.357 91 89.06 91 65.36V22.125h-4.55zM81.9 65.36c0 14.282-24.78 28.497-36.4 33.774C33.88 93.867 9.1 79.67 9.1 65.36v-34.56c11.762-1.892 21.612-10.916 23.81-21.755h25.18C60.283 19.885 70.138 28.91 81.9 30.8v34.561z"/></g></symbol><symbol id="telephone"><path d="M7.088 6.491c.762-.83 1.218-1.734.685-2.413C6.631 2.57 4.347-1.73 2.368.76 1.454 1.815.464 3.25.464 3.25S-.069 3.7.007 4.605c.153 6.788 11.726 15.612 18.35 14.254.838-.226 1.219-.83 1.219-.83s1.142-1.282 1.98-2.413c1.903-2.564-2.817-3.696-4.57-4.374-.761-.377-1.598.226-2.207 1.206-1.447 2.263-9.518-3.996-7.691-5.958z" fill="#603977" fill-rule="nonzero"/></symbol><symbol id="twitter"><path d="M42 4.143a16.83 16.83 0 01-4.948 1.39 8.816 8.816 0 003.79-4.886 16.971 16.971 0 01-5.476 2.141A8.498 8.498 0 0029.077 0c-4.755 0-8.613 3.956-8.613 8.835 0 .693.074 1.365.222 2.013-7.162-.37-13.51-3.883-17.762-9.235A8.996 8.996 0 001.758 6.06c0 3.064 1.52 5.768 3.833 7.354a8.46 8.46 0 01-3.905-1.103v.109c0 4.282 2.97 7.854 6.915 8.663a8.216 8.216 0 01-2.27.311 8.37 8.37 0 01-1.622-.156c1.097 3.508 4.277 6.064 8.049 6.133-2.949 2.37-6.666 3.784-10.702 3.784-.695 0-1.383-.04-2.056-.121C3.814 33.536 8.345 35 13.209 35 29.06 35 37.725 21.538 37.725 9.862c0-.385-.007-.769-.022-1.145A17.685 17.685 0 0042 4.143" fill="#662D91" fill-rule="evenodd"/></symbol><symbol id="x-purple"><g fill="#662D91" fill-rule="evenodd"><rect transform="rotate(-45 11.5 11.5)" x="-3" y="10" width="29" height="3" rx="1.5"/><rect transform="rotate(45 11.5 11.5)" x="-3" y="10" width="29" height="3" rx="1.5"/></g></symbol><symbol id="x"><g fill="#FFF" fill-rule="evenodd"><rect transform="rotate(-45 11.5 11.5)" x="-3" y="10" width="29" height="3" rx="1.5"/><rect transform="rotate(45 11.5 11.5)" x="-3" y="10" width="29" height="3" rx="1.5"/></g></symbol></svg>